HIERARCHY
ROOT Hips
{
	OFFSET 0.000000 0.000000 0.000000 
	CHANNELS 6 Xposition Yposition Zposition Yrotation Zrotation Xrotation 
	JOINT Lumbar
	{
		OFFSET 0.000000 0.000000 0.000000 
		CHANNELS 3 Zrotation Xrotation Yrotation
		JOINT Neck
		{
			OFFSET 0.000000 0.445665 0.000000 
			CHANNELS 3 Zrotation Xrotation Yrotation
			End Site
			{
				OFFSET 0.000000 0.227535 0.000000 
			}
		}
		JOINT RightShoulder
		{
			OFFSET 0.019635 0.377685 0.194865 
			CHANNELS 3 Zrotation Xrotation Yrotation
			JOINT RightElbow
			{
				OFFSET 0.000000 -0.243375 0.000000 
				CHANNELS 2 Zrotation Yrotation
				JOINT RightWrist
				{
					OFFSET 0.000000 -0.264825 0.000000 
					CHANNELS 2 Zrotation Xrotation
					End Site
					{
						OFFSET 0.006600 -0.176220 0.000990 
					}
				}
			}
		}
		JOINT LeftShoulder
		{
			OFFSET 0.019635 0.377685 -0.194865 
			CHANNELS 3 Zrotation Xrotation Yrotation
			JOINT LeftElbow
			{
				OFFSET 0.000000 -0.243375 0.000000 
				CHANNELS 2 Zrotation Yrotation
				JOINT LeftWrist
				{
					OFFSET 0.000000 -0.264825 0.000000 
					CHANNELS 2 Zrotation Xrotation
					End Site
					{
						OFFSET 0.006600 -0.176220 -0.000990 
					}
				}
			}
		}
	}
	JOINT RightHip
	{
		OFFSET 0.052140 -0.069960 0.075570 
		CHANNELS 3 Zrotation Xrotation Yrotation
		JOINT RightKnee
		{
			OFFSET 0.000000 -0.402270 0.000000 
			CHANNELS 1 Zrotation
			JOINT RightAnkle
			{
				OFFSET 0.000000 -0.404085 0.000000 
				CHANNELS 3 Zrotation Xrotation Yrotation
				End Site
				{
					OFFSET 0.204105 -0.089430 0.008415 
				}
			}
		}
	}
	JOINT LeftHip
	{
		OFFSET 0.052140 -0.069960 -0.075570 
		CHANNELS 3 Zrotation Xrotation Yrotation
		JOINT LeftKnee
		{
			OFFSET 0.000000 -0.402270 0.000000 
			CHANNELS 1 Zrotation
			JOINT LeftAnkle
			{
				OFFSET 0.000000 -0.404085 0.000000 
				CHANNELS 3 Zrotation Xrotation Yrotation
				End Site
				{
					OFFSET 0.204105 -0.089430 -0.008415 
				}
			}
		}
	}
}
MOTION
Frames: 19
Frame Time: 0.02
0.0001 2e-05 8e-05 -179.89962 -36.48294 -3.42153 44.39164 2.52982 -4.47723 -10.55523 -1.84066 -0.37981 91.10635 -91.98271 -89.99554 5.32875 64.35713 -13.18197 1.5651 55.47255 97.24962 -64.16706 6.50024 -93.72425 9.54569 0.25084 40.76287 -4.51003 -3.76356 -22.32101 -6.75881 -3.09812 -2.25888 45.46592 9.88518 -1.01469 -27.63066 -6.51114 2.14969 1.74424
0 0 -2e-05 -179.92954 -36.46927 -3.42767 44.38752 2.52619 -4.47281 -10.59335 -1.83479 -0.38015 91.41229 -91.99287 -89.99568 5.32875 64.36879 -13.16038 1.52534 55.60914 97.25381 -64.16747 6.49394 -93.73834 9.54597 0.23513 40.74427 -4.50568 -3.79544 -22.31933 -6.75657 -3.09369 -2.25635 45.43555 9.85899 -1.16345 -27.62811 -6.50709 2.17977 1.75886
-0.0001 -1e-05 -0.00012 -179.95937 -36.45562 -3.43379 44.38341 2.52258 -4.46842 -10.63138 -1.82894 -0.38048 91.71752 -92.00302 -89.99581 5.32875 64.38044 -13.13885 1.48567 55.74585 97.25796 -64.16788 6.4876 -93.75245 9.54634 0.21943 40.72569 -4.50133 -3.82717 -22.31765 -6.75434 -3.08928 -2.25384 45.40525 9.83289 -1.31169 -27.62558 -6.50306 2.20975 1.77344
-0.00021 -2e-05 -0.00022 -179.98921 -36.44199 -3.4399 44.3793 2.51897 -4.46402 -10.66939 -1.82308 -0.38081 92.02255 -92.01315 -89.99595 5.32875 64.39207 -13.11733 1.44603 55.88211 97.26213 -64.16829 6.4813 -93.76651 9.54663 0.20377 40.70714 -4.497 -3.85896 -22.31597 -6.75211 -3.08486 -2.25132 45.37497 9.80677 -1.45999 -27.62304 -6.49903 2.23974 1.78802
-0.00031 -3e-05 -0.00031 -180.01913 -36.42834 -3.44604 44.3752 2.51534 -4.45958 -10.70746 -1.8172 -0.38114 92.32823 -92.0233 -89.99609 5.32875 64.40371 -13.09577 1.40631 56.01803 97.26637 -64.1687 6.47507 -93.78053 9.54683 0.1881 40.68857 -4.49266 -3.89091 -22.31429 -6.74987 -3.08042 -2.24879 45.34464 9.78057 -1.60879 -27.6205 -6.49498 2.26982 1.80264
-0.00041 -5e-05 -0.00041 -180.04877 -36.4147 -3.45211 44.37106 2.51177 -4.4553 -10.74543 -1.81142 -0.38148 92.63252 -92.03344 -89.99622 5.32875 64.41536 -13.07429 1.36672 56.15639 97.27031 -64.16911 6.46851 -93.79484 9.54754 0.17234 40.66999 -4.48829 -3.92217 -22.31261 -6.74766 -3.07609 -2.24631 45.31442 9.75469 -1.75581 -27.61797 -6.49097 2.2996 1.81712
-0.00052 -6e-05 -0.00051 -180.07895 -36.40105 -3.45831 44.367 2.50809 -4.4507 -10.78355 -1.80545 -0.38181 92.93916 -92.04358 -89.99636 5.32875 64.42698 -13.05268 1.32694 56.28974 97.27486 -64.16953 6.46262 -93.80853 9.54721 0.15679 40.65144 -4.484 -3.95481 -22.31094 -6.7454 -3.07152 -2.24372 45.28401 9.72816 -1.90636 -27.61541 -6.4869 2.32995 1.83189
-0.00062 -7e-05 -0.00061 -180.10862 -36.3874 -3.46439 44.36286 2.5045 -4.44639 -10.82155 -1.79965 -0.38214 93.24386 -92.05372 -89.9965 5.32875 64.43864 -13.03118 1.2873 56.42762 97.27883 -64.16993 6.45611 -93.82281 9.54783 0.14106 40.63286 -4.47962 -3.98612 -22.30926 -6.74319 -3.06719 -2.24124 45.25377 9.70228 -2.05346 -27.61288 -6.48288 2.35975 1.84637
-0.00072 -9e-05 -0.0007 -180.13773 -36.3738 -3.47033 44.35864 2.50104 -4.44246 -10.85937 -1.79405 -0.38247 93.54546 -92.06386 -89.99663 5.32875 64.45032 -13.00983 1.24795 56.57155 97.28213 -64.17032 6.4488 -93.83779 9.54969 0.12502 40.61427 -4.47519 -4.01605 -22.30758 -6.74101 -3.06311 -2.23889 45.22372 9.67701 -2.19715 -27.6104 -6.47893 2.38902 1.86059
-0.00083 -0.0001 -0.00081 -180.17023 -36.36004 -3.47711 44.35495 2.49691 -4.43639 -10.89812 -1.7873 -0.38282 93.86271 -92.07399 -89.99677 5.32875 64.46178 -12.98765 1.20728 56.6822 97.28944 -64.17081 6.44598 -93.84867 9.54465 0.11051 40.59582 -4.4712 -4.05464 -22.30591 -6.73857 -3.05746 -2.23575 45.19251 9.64767 -2.3629 -27.60767 -6.47458 2.42176 1.87655
-0.00093 -0.00011 -0.00089 -180.19546 -36.34657 -3.48208 44.3501 2.49416 -4.43484 -10.93496 -1.78296 -0.38312 94.14829 -92.08415 -89.9969 5.32875 64.47378 -12.9672 1.1692 56.86205 97.28816 -64.17109 6.43377 -93.86822 9.554 0.09291 40.57704 -4.46623 -4.07451 -22.30423 -6.73671 -3.05519 -2.23431 45.16379 9.62727 -2.48054 -27.60545 -6.47111 2.44692 1.88871
-0.00102 -0.00012 -0.0009 -180.20167 -36.33405 -3.48221 44.34224 2.49541 -4.44577 -10.96614 -1.78556 -0.38324 94.33575 -92.09428 -89.997 5.32875 64.48651 -12.9518 1.13968 57.2421 97.26419 -64.17081 6.39489 -93.9117 9.6046 0.06566 40.55746 -4.45904 -4.0463 -22.30236 -6.73635 -3.06191 -2.23735 45.14172 9.62862 -2.47851 -27.60457 -6.4698 2.45318 1.89147
-0.00111 -0.00014 -0.00089 -180.20042 -36.32177 -3.48049 44.33318 2.498 -4.46122 -10.9955 -1.79052 -0.3833 94.49378 -92.1044 -89.99708 5.32875 64.49993 -12.93803 1.11248 57.6897 97.23144 -64.17033 6.34677 -93.96386 9.66929 0.0355 40.53752 -4.45079 -3.99874 -22.30051 -6.7366 -3.07209 -2.24212 45.12218 9.63934 -2.42642 -27.6042 -6.4694 2.45154 1.89025
-0.00119 -0.00015 -0.00088 -180.20196 -36.30925 -3.47955 44.32455 2.49986 -4.47456 -11.02597 -1.79419 -0.3834 94.67223 -92.11464 -89.99718 5.32875 64.51347 -12.92339 1.08329 58.09971 97.20213 -64.16996 6.30344 -94.01195 9.72646 0.00745 40.51766 -4.44269 -3.95779 -22.29878 -6.73665 -3.08089 -2.24622 45.10163 9.64778 -2.38851 -27.60362 -6.46875 2.4522 1.89012
-0.00128 -0.00016 -0.00089 -180.20598 -36.29732 -3.47887 44.31636 2.50227 -4.48817 -11.05522 -1.79879 -0.38346 94.81968 -92.1246 -89.99726 5.32875 64.52511 -12.90953 1.0581 58.5391 97.17512 -64.16949 6.25748 -94.06057 9.78857 -0.02385 40.49816 -4.43592 -3.92575 -22.29653 -6.73638 -3.0889 -2.24983 45.08056 9.64841 -2.38448 -27.60293 -6.46747 2.45804 1.89287
-0.00136 -0.00017 -0.00087 -180.20309 -36.2842 -3.4772 44.307 2.50383 -4.50223 -11.0866 -1.80201 -0.38359 95.02625 -92.1349 -89.99736 5.32875 64.54095 -12.89415 1.02508 58.9331 97.14123 -64.16918 6.21495 -94.11016 9.84348 -0.04917 40.47781 -4.42621 -3.87091 -22.29536 -6.73692 -3.09935 -2.25486 45.06111 9.66685 -2.30079 -27.60259 -6.46766 2.45153 1.88887
-0.00141 -0.00018 -0.00082 -180.1829 -36.26785 -3.47333 44.29449 2.50288 -4.51695 -11.12424 -1.80083 -0.38389 95.39047 -92.14807 -89.99754 5.32875 64.56811 -12.87668 0.97056 59.18708 97.09063 -64.1694 6.18307 -94.16 9.87727 -0.05639 40.45537 -4.40786 -3.75493 -22.29717 -6.73966 -3.11587 -2.26345 45.04587 9.73822 -1.98562 -27.60317 -6.4721 2.41007 1.86551
-0.00144 -0.00018 -0.00075 -180.15605 -36.25028 -3.46852 44.28087 2.50099 -4.53184 -11.16411 -1.79816 -0.38425 95.81772 -92.16118 -89.99773 5.32875 64.59996 -12.85718 0.90808 59.39295 97.03338 -64.16979 6.15518 -94.21053 9.90303 -0.05764 40.43205 -4.38673 -3.61726 -22.30006 -6.74319 -3.13467 -2.27337 45.0321 9.8261 -1.59632 -27.60407 -6.47791 2.35696 1.83578
-0.00148 -0.00019 -0.00069 -180.13232 -36.23322 -3.46407 44.26787 2.4994 -4.54632 -11.20302 -1.79618 -0.38458 96.22436 -92.17311 -89.99792 5.32875 64.62913 -12.8369 0.84866 59.61924 96.97913 -64.17007 6.12616 -94.26101 9.9309 -0.06222 40.40906 -4.36739 -3.49142 -22.30243 -6.74633 -3.15231 -2.28263 45.01745 9.90239 -1.25672 -27.60476 -6.48284 2.31101 1.81007
